<?xml version="1.0" encoding="UTF-8" standalone="no"?>
<!-- Created with Inkscape (http://www.inkscape.org/) -->

<svg
   width="512"
   height="512"
   viewBox="0 0 512 512"
   version="1.1"
   id="svg1"
   inkscape:version="1.3 (0e150ed6c4, 2023-07-21)"
   sodipodi:docname="axer.svg"
   xmlns:inkscape="http://www.inkscape.org/namespaces/inkscape"
   xmlns:sodipodi="http://sodipodi.sourceforge.net/DTD/sodipodi-0.dtd"
   xmlns="http://www.w3.org/2000/svg"
   xmlns:svg="http://www.w3.org/2000/svg">
  <sodipodi:namedview
     id="namedview1"
     pagecolor="#505050"
     bordercolor="#eeeeee"
     borderopacity="1"
     inkscape:showpageshadow="0"
     inkscape:pageopacity="0"
     inkscape:pagecheckerboard="0"
     inkscape:deskcolor="#505050"
     inkscape:document-units="px"
     inkscape:zoom="1.4045461"
     inkscape:cx="208.25233"
     inkscape:cy="224.62773"
     inkscape:window-width="2240"
     inkscape:window-height="1294"
     inkscape:window-x="-11"
     inkscape:window-y="-11"
     inkscape:window-maximized="1"
     inkscape:current-layer="layer1" />
  <defs
     id="defs1" />
  <g
     inkscape:label="Warstwa 1"
     inkscape:groupmode="layer"
     id="layer1">
    <circle
       style="fill:#ffffff;fill-opacity:1;stroke-width:1.74541"
       id="path2"
       cx="255.95457"
       cy="255.95459"
       r="236.73128" />
    <path
       d="M 229.16292,16.496214 C 177.6715,21.92936 124.20439,47.489851 87.283681,84.163597 20.727627,150.47263 -1.9928055,244.44141 27.272098,333.22401 54.067397,414.84469 122.10522,475.2267 208.17121,493.87229 c 14.57072,3.087 17.16382,3.33398 48.15748,3.33398 30.87017,0 33.58674,-0.24712 48.03397,-3.33398 54.94887,-11.97764 101.99498,-40.00772 136.93999,-81.74417 C 507.11783,333.59444 516.37886,222.58537 464.39354,134.2967 425.74409,68.605037 357.21237,24.275493 282.01266,16.372732 268.67676,15.014444 242.62231,15.014444 229.16292,16.496221 Z M 351.7792,118.49116 c 19.63343,5.80361 35.6859,21.60911 41.61299,40.87207 1.97568,6.42102 2.4696,11.36024 2.4696,26.67182 l -0.12356,18.64563 -84.83118,86.80688 c -46.67567,47.66351 -87.67127,88.65906 -91.00525,91.12869 -22.47346,16.17596 -45.07042,18.15164 -69.27262,6.42098 -9.26105,-4.56876 -20.74475,-14.94115 -25.68398,-23.58478 -11.73065,-20.00386 -11.11325,-43.83562 1.72873,-63.46904 6.79143,-10.3724 165.09362,-170.77374 174.10771,-176.45383 15.31162,-9.6315 33.71023,-12.22459 50.99748,-7.03842 z m 43.83564,184.3566 -0.37046,52.47927 -3.45746,7.28536 c -11.60718,24.81959 -38.52594,38.27899 -68.03781,34.08066 -25.93095,-3.70444 -42.97126,-18.89254 -48.52789,-43.34172 l -1.85222,-8.64364 20.12735,-20.62126 c 11.23674,-11.3602 38.64945,-39.39031 60.99945,-62.48121 l 40.74858,-41.73645 0.37046,15.18813 c 0.12356,8.39669 0.12356,38.89639 0,67.79086 z"
       id="path1"
       style="fill:#000000;stroke-width:0.12348;fill-opacity:1" />
  </g>
</svg>
